<?xml version="1.0" encoding="utf-8"?>
<!-- Generator: Adobe Illustrator 19.0.0, SVG Export Plug-In . SVG Version: 6.00 Build 0)  -->
<svg version="1.1" id="图层_1" xmlns="http://www.w3.org/2000/svg" xmlns:xlink="http://www.w3.org/1999/xlink" x="0px" y="0px"
	 viewBox="38 -38 100 100" style="enable-background:new 38 -38 100 100;" xml:space="preserve">
<g id="XMLID_1_">
	<path fill="rgb(102,102,102)" id="XMLID_3_" d="M59.2,57.8c-0.4,0-0.9-0.1-1.2-0.4c-0.7-0.5-1-1.3-0.8-2.1l5.4-31.4L39.7,1.7c-0.6-0.6-0.8-1.4-0.5-2.2
		s0.9-1.3,1.7-1.4l31.5-4.6L86.5-35c0.7-1.4,3.1-1.4,3.8,0l14.1,28.6l31.5,4.6c0.8,0.1,1.5,0.7,1.7,1.4c0.2,0.8,0,1.6-0.5,2.2
		l-22.8,22.1l5.4,31.4c0.1,0.8-0.2,1.6-0.8,2.1c-0.7,0.5-1.5,0.5-2.2,0.2L88.4,42.7L60.2,57.6C59.9,57.7,59.6,57.8,59.2,57.8z"/>
</g>
</svg>
