<?xml version="1.0" encoding="utf-8"?>
<!-- Generator: Adobe Illustrator 19.0.0, SVG Export Plug-In . SVG Version: 6.00 Build 0)  -->
<svg version="1.1" id="图层_1" xmlns="http://www.w3.org/2000/svg" xmlns:xlink="http://www.w3.org/1999/xlink" x="0px" y="0px"
	 viewBox="0 0 100 100" style="enable-background:new 0 0 100 100;" xml:space="preserve">
<g id="XMLID_1_" fill="#666666">
	<path id="XMLID_3_" d="M21.2,95.8c-0.4,0-0.9-0.1-1.2-0.4c-0.7-0.5-1-1.3-0.8-2.1l5.4-31.4L1.7,39.7c-0.6-0.6-0.8-1.4-0.5-2.2
		c0.3-0.8,0.9-1.3,1.7-1.4l31.5-4.6L48.5,3c0.7-1.4,3.1-1.4,3.8,0l14.1,28.6l31.5,4.6c0.8,0.1,1.5,0.7,1.7,1.4
		c0.2,0.8,0,1.6-0.5,2.2L76.3,61.9l5.4,31.4c0.1,0.8-0.2,1.6-0.8,2.1c-0.7,0.5-1.5,0.5-2.2,0.2L50.4,80.7L22.2,95.6
		C21.9,95.7,21.6,95.8,21.2,95.8z M50.4,76.2c0.3,0,0.7,0.1,1,0.2l25.4,13.3l-4.8-28.3c-0.1-0.7,0.1-1.4,0.6-1.9l20.5-20l-28.4-4.1
		c-0.7-0.1-1.3-0.5-1.6-1.2L50.4,8.7L37.7,34.4c-0.3,0.6-0.9,1.1-1.6,1.2L7.7,39.7l20.5,20c0.5,0.5,0.7,1.2,0.6,1.9L24,89.8
		l25.4-13.3C49.7,76.3,50.1,76.2,50.4,76.2z"/>
</g>
</svg>
