<?xml version="1.0" encoding="UTF-8"?>
<svg width="20px" height="22px" viewBox="0 0 20 22" version="1.1" xmlns="http://www.w3.org/2000/svg" xmlns:xlink="http://www.w3.org/1999/xlink">
    <!-- Generator: Sketch 42 (36781) - http://www.bohemiancoding.com/sketch -->
    <title>收货地址 黑</title>
    <desc>Created with Sketch.</desc>
    <defs></defs>
    <g id="会员中心" stroke="none" stroke-width="1"  fill-rule="evenodd">
        <g id="收货地址-黑" fill-rule="nonzero" >
            <path fill="rgb(96,96,96)" d="M10.8794958,20.5764753 C10.6799603,20.8090751 10.3200397,20.8090751 10.1205042,20.5764753 C10.0613817,20.5075559 9.95195432,20.3780661 9.79939086,20.1944568 C9.54592008,19.8894062 9.263687,19.5431773 8.95985311,19.1622067 C8.09179297,18.0737652 7.22369279,16.92404 6.41265701,15.7640792 C5.82742792,14.9270719 5.29344562,14.1147697 4.82217869,13.3371725 C3.42796025,11.0366921 2.64485677,9.15815387 2.64485677,7.78589296 C2.64485677,3.61372815 6.16642135,0.240439967 10.5,0.240439967 C14.8335786,0.240439967 18.3551432,3.61372815 18.3551432,7.78589296 C18.3551432,9.15815387 17.5720398,11.0366921 16.1778213,13.3371725 C15.7065544,14.1147697 15.1725721,14.9270719 14.587343,15.7640792 C13.7763072,16.92404 12.908207,18.0737652 12.0401469,19.1622067 C11.736313,19.5431773 11.4540799,19.8894062 11.2006091,20.1944568 C11.0480457,20.3780661 10.9386183,20.5075559 10.8794958,20.5764753 Z M11.2583354,18.5386919 C12.1141369,17.4656212 12.9698984,16.3322375 13.7678002,15.1910611 C14.341211,14.3709568 14.8634115,13.5765772 15.3226215,12.8188741 C16.6269007,10.6667946 17.3551432,8.91985901 17.3551432,7.78589296 C17.3551432,4.17586528 14.2906882,1.24043997 10.5,1.24043997 C6.70931177,1.24043997 3.64485677,4.17586528 3.64485677,7.78589296 C3.64485677,8.91985901 4.37309926,10.6667946 5.67737852,12.8188741 C6.13658849,13.5765772 6.65878902,14.3709568 7.23219976,15.1910611 C8.03010157,16.3322375 8.88586307,17.4656212 9.74166463,18.5386919 C10.0140227,18.8801957 10.2686067,19.1931762 10.5,19.4727389 C10.7313933,19.1931762 10.9859773,18.8801957 11.2583354,18.5386919 Z" id="Oval-4"></path>
            <path fill="rgb(96,96,96)" d="M10.5,12.0795984 C8.04125217,12.0795984 6.03953826,10.1621672 6.03953826,7.78589296 C6.03953826,5.40961872 8.04125217,3.4921875 10.5,3.4921875 C12.9587478,3.4921875 14.9604617,5.40961872 14.9604617,7.78589296 C14.9604617,10.1621672 12.9587478,12.0795984 10.5,12.0795984 Z M10.5,11.0795984 C12.4158574,11.0795984 13.9604617,9.60003005 13.9604617,7.78589296 C13.9604617,5.97175586 12.4158574,4.4921875 10.5,4.4921875 C8.58414259,4.4921875 7.03953826,5.97175586 7.03953826,7.78589296 C7.03953826,9.60003005 8.58414259,11.0795984 10.5,11.0795984 Z" id="Oval-5"></path>
        </g>
    </g>
</svg>