<?xml version="1.0" encoding="UTF-8"?>
<svg width="20px" height="20px" viewBox="0 0 20 20" version="1.1" xmlns="http://www.w3.org/2000/svg" xmlns:xlink="http://www.w3.org/1999/xlink">
    <!-- Generator: Sketch 42 (36781) - http://www.bohemiancoding.com/sketch -->
    <title>联系方式 黑</title>
    <desc>Created with Sketch.</desc>
    <defs></defs>
    <g id="会员中心" stroke="none" stroke-width="1"  fill-rule="evenodd">
        <g id="联系方式-黑" fill-rule="nonzero" >
            <path fill="rgb(96,96,96)" d="M16.6504383,15.08485 C16.3220842,14.7682045 15.8943582,14.4318056 15.4363138,14.111092 C14.9783912,13.7904404 14.4977453,13.4932287 14.0865952,13.2760534 C13.5595833,12.997996 13.2960895,12.9163349 13.1251537,12.9163349 C12.9504777,12.9163349 12.7824371,13.0006759 12.6082214,13.2529431 C12.5012196,13.4079663 12.4251183,13.5632313 12.2583968,13.9474788 C12.1500833,14.1992067 12.0833753,14.343591 12.0061994,14.4712753 L11.7980593,14.815634 L11.4171532,14.6859584 C11.1423211,14.5923947 10.7510799,14.3863528 10.2209253,14.0253164 C9.60649958,13.6067092 8.94220089,13.0669376 8.4266474,12.5653008 C7.93433674,12.0591692 7.39393949,11.394326 6.97462042,10.7791218 C6.61400342,10.2491883 6.40807856,9.85826036 6.31414293,9.58341164 L6.18369765,9.20173842 L6.52913429,8.9934983 C6.65546312,8.91734329 6.79902905,8.85089986 7.05486103,8.74028695 C7.13166902,8.70683284 7.13166902,8.70683284 7.19617239,8.67859995 C7.45437724,8.5650605 7.61443607,8.48323214 7.74708842,8.39172219 C7.99927646,8.2178481 8.0835738,8.04985884 8.0835738,7.87475493 C8.0835738,7.70395923 8.00190698,7.44056289 7.72372535,6.91351438 C7.50729402,6.50314034 7.21012534,6.02254105 6.8886977,5.56369896 C6.56853222,5.10606663 6.23326473,4.67961478 5.91513757,4.34964012 C5.53689567,3.95738374 5.285861,3.80769231 5.10970904,3.80769231 C4.69951673,3.80769231 4.03950779,4.40592477 3.51377482,5.10653794 C2.93368537,5.88062348 2.5,6.76555513 2.5,7.51050787 C2.5,8.26493046 2.94991764,9.33677666 3.66488683,10.4972444 C4.39712552,11.6852426 5.41399284,12.9703276 6.52015234,14.1054584 L6.88909049,14.4744877 C8.03048211,15.5863665 9.31573622,16.6033633 10.5027252,17.3349118 C11.6633841,18.0501855 12.734925,18.5000913 13.4895835,18.5000913 C14.2349619,18.5000913 15.1198837,18.066307 15.8934961,17.4861768 C16.5938065,16.9612168 17.1923077,16.3009898 17.1923077,15.890291 C17.1923077,15.714191 17.0425771,15.4630504 16.650417,15.0848295 L16.9975165,14.7249378 L16.6504383,15.08485 Z M17.3446159,14.3650462 C17.9134789,14.9136892 18.1923077,15.3813641 18.1923077,15.890291 C18.1923077,16.4072059 17.9126343,16.913016 17.4451639,17.4286985 C17.1503364,17.7539327 16.8131057,18.0465941 16.4933702,18.2862712 C15.5590356,18.9869266 14.5121776,19.5000913 13.4895835,19.5000913 C12.4947917,19.5000913 11.287527,18.9931994 9.97807157,18.1862276 C8.72559723,17.41432 7.38187768,16.3509141 6.18428178,15.1838927 L5.80847068,14.8079314 C4.6480815,13.617212 3.58567947,12.2745816 2.81355141,11.0218662 C2.00688079,9.71255767 1.5,8.50500724 1.5,7.51050787 C1.5,6.48841278 2.01295948,5.44172293 2.71373187,4.50659529 C2.95391729,4.18651434 3.24642388,3.84962009 3.57162027,3.55486191 C4.08739949,3.08735934 4.5930538,2.80769231 5.10970904,2.80769231 C5.61873288,2.80769231 6.08631918,3.08651301 6.63501847,3.65554251 C6.99583612,4.02979751 7.36054405,4.49369687 7.70790417,4.99020034 C8.05224801,5.48175543 8.37131495,5.99776992 8.60817308,6.44687513 C8.9557678,7.10543502 9.0835738,7.51764198 9.0835738,7.87475493 C9.0835738,8.37202306 8.84351175,8.85042301 8.31482133,9.214935 C8.11736744,9.3511482 7.91058105,9.45686551 7.59870105,9.59400733 C7.53029564,9.62394772 7.53029564,9.62394772 7.47167806,9.6492834 C7.53727905,9.81253813 7.65253895,9.99784179 7.8011454,10.2162219 C8.18813958,10.7840004 8.69203953,11.4039415 9.13364794,11.8582243 C9.5973218,12.3091397 10.2166881,12.8124018 10.7838851,13.1988322 C11.0023696,13.3476205 11.187715,13.4629563 11.3415932,13.549698 C11.5337437,13.1051326 11.6282445,12.9123286 11.785301,12.6847864 C12.150251,12.1563329 12.6284218,11.9163349 13.1251537,11.9163349 C13.4823332,11.9163349 13.8946025,12.044104 14.5534471,12.3917179 C15.0033532,12.6293646 15.5191959,12.9483406 16.0098891,13.2919392 C16.5069653,13.639982 16.9720356,14.0057516 17.3445946,14.3650257 L16.9975165,14.7249378 L17.3446159,14.3650462 Z" id="Fill-1"></path>
            <path fill="rgb(96,96,96)" d="M15.5769231,10.5 C15.5769231,7.53271345 13.0032317,5.14285714 9.84615385,5.14285714 L9.84615385,6.14285714 C12.4668242,6.14285714 14.5769231,8.1022347 14.5769231,10.5 L15.5769231,10.5 Z" id="Oval"></path>
            <path fill="rgb(96,96,96)" d="M19.5,10.5 C19.5,5.520819 15.1698872,1.5 9.84615385,1.5 L9.84615385,2.5 C14.6334797,2.5 18.5,6.09034025 18.5,10.5 L19.5,10.5 Z" id="Oval"></path>
        </g>
    </g>
</svg>