<?xml version="1.0" encoding="UTF-8"?>
<svg width="20px" height="22px" viewBox="0 0 20 22" version="1.1" xmlns="http://www.w3.org/2000/svg" xmlns:xlink="http://www.w3.org/1999/xlink">
    <!-- Generator: Sketch 42 (36781) - http://www.bohemiancoding.com/sketch -->
    <title>问题 黑</title>
    <desc>Created with Sketch.</desc>
    <defs></defs>
    <g id="会员中心" stroke="none" stroke-width="1"  fill-rule="evenodd">
        <g id="问题-黑" fill-rule="nonzero" >
            <path fill="rgb(96,96,96)" d="M10.2870959,21.4432142 C9.49864678,21.4432142 9.00754928,20.9097426 8.03019203,19.441103 C7.30240483,18.3474833 7.02912234,17.9998611 6.78147835,17.8949036 C3.60217054,16.5474357 1.5,13.4882223 1.5,10.0513231 C1.5,5.32527657 5.43729496,1.5 10.2870959,1.5 C15.1368969,1.5 19.0741919,5.32527657 19.0741919,10.0513231 C19.0741919,13.5363569 16.9127076,16.630004 13.6666082,17.9472087 C13.4364183,18.0406153 13.165173,18.3920244 12.4693219,19.4644149 C11.5232217,20.9224696 11.0567772,21.4432142 10.2870959,21.4432142 Z M10.2870959,20.4432142 C10.532855,20.4432142 10.9293586,20.0005525 11.6304486,18.9200881 C12.5035136,17.5745896 12.7671949,17.2329801 13.2906044,17.0205906 C16.1656132,15.8539673 18.0741919,13.1222939 18.0741919,10.0513231 C18.0741919,5.88412373 14.5909684,2.5 10.2870959,2.5 C5.98322352,2.5 2.5,5.88412373 2.5,10.0513231 C2.5,13.0798268 4.35602278,15.7808302 7.1717019,16.9741834 C7.69672932,17.1967028 7.96413923,17.5368549 8.86269619,18.8870842 C9.59852296,19.9927846 10.0131745,20.4432142 10.2870959,20.4432142 Z" id="Oval-8"></path>
            <path fill="rgb(96,96,96)" d="M7.76662532,8.16563494 C7.76662532,6.69672662 8.99839656,5.5 10.5249619,5.5 C12.0515272,5.5 13.2832984,6.69672662 13.2832984,8.16563494 C13.2856935,8.21378653 13.2856935,8.21378653 13.2875266,8.24183656 C13.3092006,8.63739127 13.2376893,9.13984457 12.9973198,9.61265427 C12.76152,10.0764755 12.3895063,10.442853 11.8418272,10.6870117 C11.0752218,11.028769 10.5446718,11.4607543 10.2209126,11.9777091 C9.88107813,12.5203315 9.81239178,12.9827205 9.83753635,13.7079194 C9.84132324,13.8153026 9.84239633,13.853205 9.84239633,13.8953599 C9.84239633,14.1715023 10.066254,14.3953599 10.3423963,14.3953599 C10.6185387,14.3953599 10.8423963,14.1715023 10.8423963,13.8953599 C10.8423963,13.8365742 10.8408893,13.783344 10.8369358,13.6732676 C10.8181517,13.131513 10.8616577,12.8386353 11.0684224,12.5084889 C11.2802143,12.1703152 11.6549591,11.8651899 12.2490039,11.600361 C13.0121065,11.2601652 13.5517479,10.7286998 13.8887372,10.0658376 C14.2213435,9.41159683 14.3164911,8.74306954 14.2860288,8.18712488 C14.282643,8.13457984 14.282643,8.13457984 14.2807298,8.11501855 C14.2832984,6.13787946 12.5974557,4.5 10.5249619,4.5 C8.452468,4.5 6.76662532,6.13787946 6.76662532,8.16563494 C6.76662532,8.44177731 6.99048294,8.66563494 7.26662532,8.66563494 C7.54276769,8.66563494 7.76662532,8.44177731 7.76662532,8.16563494 Z" id="Oval-9"></path>
            <path fill="rgb(96,96,96)" d="M10,15.5 L10,16.5 C10,16.7761424 10.2238576,17 10.5,17 C10.7761424,17 11,16.7761424 11,16.5 L11,15.5 C11,15.2238576 10.7761424,15 10.5,15 C10.2238576,15 10,15.2238576 10,15.5 Z" id="Line"></path>
        </g>
    </g>
</svg>