<?xml version="1.0" encoding="UTF-8"?>
<svg width="22px" height="20px" viewBox="0 0 22 20" version="1.1" xmlns="http://www.w3.org/2000/svg" xmlns:xlink="http://www.w3.org/1999/xlink">
    <!-- Generator: Sketch 42 (36781) - http://www.bohemiancoding.com/sketch -->
    <title>如何购买 黑</title>
    <desc>Created with Sketch.</desc>
    <defs></defs>
    <g id="会员中心" stroke="none" stroke-width="1"  fill-rule="evenodd">
        <g id="如何购买-黑" fill-rule="nonzero" >
            <path fill="rgb(96,96,96)" d="M8.6,19.5 C7.62261268,19.5 6.83333333,18.6988518 6.83333333,17.7142857 C6.83333333,16.7297196 7.62261268,15.9285714 8.6,15.9285714 C9.57738732,15.9285714 10.3666667,16.7297196 10.3666667,17.7142857 C10.3666667,18.6988518 9.57738732,19.5 8.6,19.5 Z M8.6,18.5 C9.02173405,18.5 9.36666667,18.1498804 9.36666667,17.7142857 C9.36666667,17.278691 9.02173405,16.9285714 8.6,16.9285714 C8.17826595,16.9285714 7.83333333,17.278691 7.83333333,17.7142857 C7.83333333,18.1498804 8.17826595,18.5 8.6,18.5 Z" id="Oval-10"></path>
            <path fill="rgb(96,96,96)" d="M16.2,19.5 C15.2226127,19.5 14.4333333,18.6988518 14.4333333,17.7142857 C14.4333333,16.7297196 15.2226127,15.9285714 16.2,15.9285714 C17.1773873,15.9285714 17.9666667,16.7297196 17.9666667,17.7142857 C17.9666667,18.6988518 17.1773873,19.5 16.2,19.5 Z M16.2,18.5 C16.621734,18.5 16.9666667,18.1498804 16.9666667,17.7142857 C16.9666667,17.278691 16.621734,16.9285714 16.2,16.9285714 C15.778266,16.9285714 15.4333333,17.278691 15.4333333,17.7142857 C15.4333333,18.1498804 15.778266,18.5 16.2,18.5 Z" id="Oval-10-Copy"></path>
            <path fill="rgb(96,96,96)" d="M10.2980397,9.00998411 C10.1042402,8.81327026 9.78766649,8.81090777 9.59095264,9.00470734 C9.3942388,9.19850691 9.39187631,9.51508058 9.58567588,9.71179443 L11.481985,11.6366194 C11.6785517,11.8361421 12.0006561,11.8353005 12.1961776,11.6347534 L15.9566626,7.77761059 C16.1494316,7.57988673 16.1454149,7.26332972 15.947691,7.07056072 C15.7499672,6.87779172 15.4334102,6.88180842 15.2406412,7.07953227 L11.8363005,10.5713766 L10.2980397,9.00998411 Z" id="Path-4"></path>
            <path fill="rgb(96,96,96)" d="M7.47749267,13.3571429 L16.9246303,13.3571429 L19.3208078,5.65506417 L5.95427655,5.65506417 L7.47749267,13.3571429 Z M20,4.65506417 C20.3370546,4.65506417 20.5775555,4.98175692 20.4774288,5.30359605 L17.7701435,14.0056747 C17.7051083,14.2147186 17.5116414,14.3571429 17.2927146,14.3571429 L7.06669196,14.3571429 C6.82794759,14.3571429 6.62251073,14.1883556 6.57619211,13.9541475 L4.11317414,1.5 L1,1.5 C0.723857625,1.5 0.5,1.27614237 0.5,1 C0.5,0.723857625 0.723857625,0.5 1,0.5 L4.52397485,0.5 C4.76271922,0.5 4.96815608,0.668787215 5.01447469,0.902995372 L5.75650966,4.65506417 L20,4.65506417 Z" id="Path-3"></path>
        </g>
    </g>
</svg>