<?xml version="1.0" encoding="UTF-8"?>
<svg width="20px" height="20px" viewBox="0 0 20 20" version="1.1" xmlns="http://www.w3.org/2000/svg" xmlns:xlink="http://www.w3.org/1999/xlink">
    <!-- Generator: Sketch 42 (36781) - http://www.bohemiancoding.com/sketch -->
    <title>基本信息 黑</title>
    <desc>Created with Sketch.</desc>
    <defs></defs>
    <g id="会员中心" stroke="none" stroke-width="1"  fill-rule="evenodd">
        <g id="基本信息-黑" fill-rule="nonzero" >
            <path fill="rgb(96,96,96)" d="M10,11.3432071 C7.1430757,11.3432071 4.82575684,9.04103416 4.82575684,6.19951459 C4.82575684,3.35799502 7.1430757,1.05582204 10,1.05582204 C12.8569243,1.05582204 15.1742432,3.35799502 15.1742432,6.19951459 C15.1742432,9.04103416 12.8569243,11.3432071 10,11.3432071 Z M10,10.3432071 C12.3061021,10.3432071 14.1742432,8.48727619 14.1742432,6.19951459 C14.1742432,3.911753 12.3061021,2.05582204 10,2.05582204 C7.69389787,2.05582204 5.82575684,3.911753 5.82575684,6.19951459 C5.82575684,8.48727619 7.69389787,10.3432071 10,10.3432071 Z" id="Oval-6"></path>
            <path fill="rgb(96,96,96)" d="M18.6799255,18.9696691 C18.6799255,14.2046691 14.7930592,10.3432071 10,10.3432071 C5.20694079,10.3432071 1.32007446,14.2046691 1.32007446,18.9696691 C1.32007446,19.2458115 1.54393209,19.4696691 1.82007446,19.4696691 C2.09621684,19.4696691 2.32007446,19.2458115 2.32007446,18.9696691 C2.32007446,14.7584271 5.75776296,11.3432071 10,11.3432071 C14.242237,11.3432071 17.6799255,14.7584271 17.6799255,18.9696691 C17.6799255,19.2458115 17.9037832,19.4696691 18.1799255,19.4696691 C18.4560679,19.4696691 18.6799255,19.2458115 18.6799255,18.9696691 Z" id="Oval-6-Copy"></path>
        </g>
    </g>
</svg>