<?xml version="1.0" encoding="UTF-8"?>
<svg width="20px" height="20px" viewBox="0 0 20 20" version="1.1" xmlns="http://www.w3.org/2000/svg" xmlns:xlink="http://www.w3.org/1999/xlink">
    <!-- Generator: Sketch 42 (36781) - http://www.bohemiancoding.com/sketch -->
    <title>我的订单 黑</title>
    <desc>Created with Sketch.</desc>
    <defs></defs>
    <g id="会员中心" stroke="none" stroke-width="1"  fill-rule="evenodd">
        <g id="我的订单-黑" fill-rule="nonzero" >
            <path fill="rgb(96,96,96)" d="M12.690949,2 L3.99940351,2 C3.4442977,2 3,2.44404781 3,2.99508929 L3,17.0049107 C3,17.5549503 3.44491393,18 3.99406028,18 L16.0059397,18 C16.5529664,18 17,17.5512953 17,16.9972775 L17,6.40783504 L12.690949,2 Z M2,2.99508929 C2,1.8932319 2.89054313,1 3.99940351,1 L13.1118164,1 L18,6.00024414 L18,16.9972775 C18,18.1033506 17.1054862,19 16.0059397,19 L3.99406028,19 C2.8927712,19 2,18.1073772 2,17.0049107 L2,2.99508929 Z" id="Rectangle-13"></path>
            <path fill="rgb(96,96,96)" d="M5.5,10 L14.5,10 C14.7761424,10 15,9.77614237 15,9.5 C15,9.22385763 14.7761424,9 14.5,9 L5.5,9 C5.22385763,9 5,9.22385763 5,9.5 C5,9.77614237 5.22385763,10 5.5,10 Z" id="Line"></path>
            <path fill="rgb(96,96,96)" d="M5.5,7 L8.5,7 C8.77614237,7 9,6.77614237 9,6.5 C9,6.22385763 8.77614237,6 8.5,6 L5.5,6 C5.22385763,6 5,6.22385763 5,6.5 C5,6.77614237 5.22385763,7 5.5,7 Z" id="Line-Copy-3"></path>
            <path fill="rgb(96,96,96)" d="M5.5,13 L14.5,13 C14.7761424,13 15,12.7761424 15,12.5 C15,12.2238576 14.7761424,12 14.5,12 L5.5,12 C5.22385763,12 5,12.2238576 5,12.5 C5,12.7761424 5.22385763,13 5.5,13 Z" id="Line-Copy"></path>
            <path fill="rgb(96,96,96)" d="M5.5,16 L14.5,16 C14.7761424,16 15,15.7761424 15,15.5 C15,15.2238576 14.7761424,15 14.5,15 L5.5,15 C5.22385763,15 5,15.2238576 5,15.5 C5,15.7761424 5.22385763,16 5.5,16 Z" id="Line-Copy-2"></path>
            <polygon fill="rgb(96,96,96)" id="Rectangle-20" points="12.5 1 11.5 1 11.5 7.5 18 7.5 18 6.5 12.5 6.5"></polygon>
        </g>
    </g>
</svg>