<?xml version="1.0" encoding="UTF-8"?>
<svg width="20px" height="20px" viewBox="0 0 20 20" version="1.1" xmlns="http://www.w3.org/2000/svg" xmlns:xlink="http://www.w3.org/1999/xlink">
    <!-- Generator: Sketch 42 (36781) - http://www.bohemiancoding.com/sketch -->
    <title>安全设置 黑</title>
    <desc>Created with Sketch.</desc>
    <defs></defs>
    <g id="会员中心" stroke="none" stroke-width="1"  fill-rule="evenodd">
        <g id="安全设置-黑" fill-rule="nonzero" >
            <path fill="rgb(96,96,96)" d="M3.29427247,3.49957023 C3.33728861,4.84863848 3.40531697,6.19719774 3.50358614,7.45248311 C3.69833766,9.94022905 3.99747801,11.7656434 4.34341024,12.4273418 C4.58727506,12.8938059 5.22931799,13.5927343 6.16944877,14.4166607 C6.5657652,14.7639906 7.00826108,15.1282506 7.48867509,15.5047576 C8.25934477,16.1087419 9.08793245,16.7139228 9.91685008,17.28987 C10.1108156,17.4246408 10.295445,17.55128 10.4686222,17.6686866 C10.6386029,17.55242 10.8197007,17.4270807 11.0098755,17.2937338 C11.8297353,16.718864 12.6492659,16.1142698 13.4114603,15.5101852 C13.8991754,15.1236419 14.3472639,14.7497924 14.7469087,14.3936722 C15.6543401,13.5850674 16.2753355,12.8970686 16.5175122,12.4301891 C16.8647318,11.7608033 17.15841,9.94037285 17.3439807,7.46235774 C17.4380686,6.20595558 17.5009296,4.85613321 17.538323,3.50579202 C17.5499244,3.08684272 17.5582883,2.69449439 17.5639355,2.33670439 C17.2392708,2.20103853 16.8474858,2.06417705 16.3860443,1.93372193 C14.8346786,1.49513199 12.8731815,1.22920496 10.4709833,1.22920496 C8.06734127,1.22920496 6.08200693,1.49551509 4.49185124,1.9352626 C4.01289346,2.06771534 3.60423887,2.20693898 3.26394577,2.3451182 C3.27113826,2.69892594 3.28109481,3.08629362 3.29427247,3.49957023 Z M2.25368779,1.71367221 C2.25368779,1.71367221 4.77225333,0.229204963 10.4709833,0.229204963 C16.1697132,0.229204963 18.5711563,1.71367221 18.5711563,1.71367221 C18.5711563,1.71367221 18.5343065,10.7138916 17.405196,12.8906427 C16.2760854,15.0673939 10.4709833,18.8725866 10.4709833,18.8725866 C10.4709833,18.8725866 4.58233601,15.0427828 3.45720922,12.8906427 C2.33208244,10.7385027 2.25368779,1.71367221 2.25368779,1.71367221 Z" id="Rectangle-22"></path>
            <path fill="rgb(96,96,96)" d="M5.90223734,7.82518382 C5.70561926,7.63128709 5.38904445,7.63349319 5.19514773,7.83011127 C5.001251,8.02672936 5.0034571,8.34330416 5.20007518,8.53720089 L9.54103889,12.8180821 L15.7459375,6.69906441 C15.9425556,6.50516769 15.9447617,6.18859289 15.7508649,5.9919748 C15.5569682,5.79535672 15.2403934,5.79315062 15.0437753,5.98704735 L9.54103889,11.4136213 L5.90223734,7.82518382 Z" id="Path-2"></path>
        </g>
    </g>
</svg>