<?xml version="1.0" encoding="UTF-8"?>
<svg width="20px" height="20px" viewBox="0 0 20 20" version="1.1" xmlns="http://www.w3.org/2000/svg" xmlns:xlink="http://www.w3.org/1999/xlink">
    <!-- Generator: Sketch 42 (36781) - http://www.bohemiancoding.com/sketch -->
    <title>消息 黑</title>
    <desc>Created with Sketch.</desc>
    <defs></defs>
    <g id="会员中心" stroke="none" stroke-width="1"  fill-rule="evenodd">
        <g id="消息-黑" fill-rule="nonzero" >
            <path fill="rgb(96,96,96)" d="M2,3.99188419 L2,15.0081158 C2,15.5546348 2.44583439,16 2.99508929,16 L17.0049107,16 C17.5551945,16 18,15.5558155 18,15.0081158 L18,3.99188419 C18,3.4453652 17.5541656,3 17.0049107,3 L2.99508929,3 C2.44480545,3 2,3.44418455 2,3.99188419 Z M1,3.99188419 C1,2.89179693 1.8926228,2 2.99508929,2 L17.0049107,2 C18.1067681,2 19,2.89339733 19,3.99188419 L19,15.0081158 C19,16.1082031 18.1073772,17 17.0049107,17 L2.99508929,17 C1.8932319,17 1,16.1066027 1,15.0081158 L1,3.99188419 Z" id="Rectangle-13"></path>
            <path fill="rgb(96,96,96)" d="M2.33333965,2.61476452 L1.66666035,3.36010921 L9.65409722,10.5045336 C9.8438996,10.6743038 10.1309741,10.6743038 10.3207765,10.5045336 L18.3082134,3.36010921 L17.6415341,2.61476452 L9.98743687,9.46103069 L2.33333965,2.61476452 Z" id="Rectangle-14"></path>
        </g>
    </g>
</svg>