<?xml version="1.0" encoding="utf-8"?>
<!-- Generator: Adobe Illustrator 21.0.0, SVG Export Plug-In . SVG Version: 6.00 Build 0)  -->
<svg version="1.1" id="图层_1" xmlns="http://www.w3.org/2000/svg" xmlns:xlink="http://www.w3.org/1999/xlink" x="0px" y="0px"
	 viewBox="0 0 18 15" style="enable-background:new 0 0 18 15;" xml:space="preserve">
<style type="text/css">
	.st0{fill:#666767;}
</style>
<g id="图层_1_1_">
</g>
<g id="图层_2">
	<g>
		<path fill="rgb(96,96,96)"  d="M17.1,5.5c0.1,0,0.1,0,0.2,0s0.1,0,0.2,0h0.1L18,5.6V0h-0.4H0.5l0,0H0.4H0v5.7l0.4-0.1h0.2c0.1,0,0.2,0,0.2,0
			c0.1,0,0.2,0,0.3,0c0.5,0,1,0.2,1.4,0.6S3.1,7,3.1,7.6c0,0.5-0.2,1-0.6,1.4C2.1,9.2,1.7,9.4,1.1,9.4c-0.1,0-0.2,0-0.3,0
			s-0.2,0-0.2,0H0.4L0,9.2v5.7h0.4h17.1H18V9.3l-0.4,0.1h-0.1c0,0-0.1,0-0.2,0c0,0-0.1,0-0.2,0c-0.5,0-1-0.2-1.4-0.6
			c-0.4-0.4-0.6-0.8-0.6-1.4c0-0.5,0.2-1,0.6-1.4C16.1,5.7,16.6,5.5,17.1,5.5z M15.1,9.5c0.5,0.5,1.2,0.8,2,0.9V14H7H6.3H1v-3.6h0.1
			c0.8,0,1.5-0.3,2.1-0.9C3.7,9,4,8.2,4,7.4S3.7,5.9,3.1,5.3c-0.4-0.5-1.2-0.8-2-0.8H1V1h5.3H7h10v3.5c-0.8,0-1.5,0.3-2,0.9
			c-0.5,0.5-0.9,1.3-0.9,2.1C14.2,8.2,14.5,9,15.1,9.5z"/>
		<path fill="rgb(96,96,96)"  d="M11.9,4L11.9,4c-0.3-0.1-0.5-0.1-0.6,0L9,6.5L6.8,4C6.6,3.9,6.4,3.9,6.2,4C6,4.1,6,4.2,6,4.4
			C6,4.5,6,4.6,6.1,4.7l1.7,1.9H6.7C6.4,6.6,6.3,6.8,6.3,7c0,0.2,0.1,0.5,0.4,0.5h1.9v0.6H6.7c-0.3,0-0.4,0.2-0.4,0.5
			C6.3,8.8,6.4,9,6.7,9h1.9v1.6c0,0.3,0.2,0.5,0.4,0.5c0.2,0,0.5-0.2,0.5-0.5V9h1.8c0.2,0,0.3-0.2,0.3-0.4c0-0.3-0.1-0.5-0.3-0.5
			H9.5V7.5h1.8c0.2,0,0.3-0.2,0.3-0.5c0-0.3-0.1-0.4-0.3-0.4h-1.2l1.7-1.9l0,0C12,4.4,12,4.2,11.9,4z"/>
	</g>
</g>
</svg>
