<?xml version="1.0" encoding="UTF-8" standalone="no"?>
<svg width="16px" height="14px" viewBox="0 0 16 14" version="1.1" xmlns="http://www.w3.org/2000/svg" xmlns:xlink="http://www.w3.org/1999/xlink">
    <!-- Generator: Sketch 39.1 (31720) - http://www.bohemiancoding.com/sketch -->
    <title>未选</title>
    <desc>Created with Sketch.</desc>
    <defs></defs>
    <g id="购物车-web" stroke="none" stroke-width="1" fill="none" fill-rule="evenodd">
        <g id="未选" fill="#000000">
            <path d="M0,1 L1,0 L1,14 L0,13 L14,13 L13,14 L13,0 L14,1 L0,1 Z M14,0 L14,14 L0,14 L0,0 L14,0 Z" id="Rectangle-4-Copy-3"></path>
            <path d="M4.29001914,5.79078119 L7.32982358,8.21223194 L14.8983996,1.23950347 C14.8983996,1.23950347 15.4064819,0.776346488 15.8493921,1.13818245 C15.9817351,1.24680276 16.1338904,1.5558058 15.7904764,2.03860134 L7.88847954,11.2956583 C7.88847954,11.2956583 7.28194375,12.1249092 6.56287732,11.2865342 L3.15298178,6.68181528 C3.15298178,6.68181528 2.74865355,6.05859541 3.25465039,5.68450708 C3.42505392,5.55972407 3.81374083,5.36455511 4.29001914,5.79078119" id="Fill-1-Copy-5"></path>
        </g>
    </g>
</svg>