<?xml version="1.0" encoding="UTF-8" standalone="no"?>
<svg width="113px" height="70px" viewBox="0 0 113 70" version="1.1" xmlns="http://www.w3.org/2000/svg" xmlns:xlink="http://www.w3.org/1999/xlink">
    <!-- Generator: Sketch 40.3 (33839) - http://www.bohemiancoding.com/sketch -->
    <title>Combined Shape</title>
    <desc>Created with Sketch.</desc>
    <defs></defs>
    <g id="新版首页" stroke="none" stroke-width="1" fill="none" fill-rule="evenodd">
        <g id="Artboard-Copy" transform="translate(-1.000000, -1.000000)" fill="#FFFFFF">
            <path d="M14.145275,64.9600173 C14.0261868,65.2656186 13.9075365,65.5716576 13.7875727,65.876821 C13.5874871,66.3855726 13.3852123,66.8930108 13.1864402,67.4022002 C12.910611,68.1084105 12.6378466,68.8159343 12.3624552,69.5221446 C12.2924033,69.7020903 12.2162219,69.8798469 12.1444188,70.058917 C12.0774317,70.2266036 11.9311984,70.1836968 11.8033538,70.1893885 C11.6868926,70.1942046 11.6063329,70.1276553 11.5765609,70.0287071 C11.4714831,69.6815126 11.3786644,69.3303776 11.2805918,68.980994 C11.1965296,68.6810845 11.1111539,68.3816128 11.0266538,68.0821411 C10.9408403,67.7778533 10.8550268,67.4740034 10.7700889,67.1697156 C10.6860267,66.8698061 10.6032779,66.5694588 10.5187778,66.2699871 C10.4329643,65.9661371 10.3445239,65.662725 10.259586,65.3584373 C10.1755237,65.0585277 10.0949641,64.7577426 10.0109019,64.4578331 C9.90319714,64.07211 9.79374111,63.6868248 9.68384726,63.3015396 C9.61642235,63.0655524 9.54724614,62.830003 9.4793834,62.5940158 C9.47018909,62.5624925 9.46274608,62.5300935 9.45793002,62.4972567 C9.42334191,62.2538265 9.4776321,62.1855259 9.7263162,62.1811477 C9.98725937,62.1763316 10.2482025,62.1837746 10.5091457,62.1789585 C10.8878636,62.1719534 10.8672858,62.2739664 10.9368999,62.5292178 C11.1080891,63.1574954 11.2709597,63.7879622 11.4347059,64.4179911 C11.5568588,64.888652 11.6750713,65.3597507 11.7959108,65.8304117 C11.8742813,66.1364507 11.952214,66.4429276 12.0332115,66.748091 C12.0402166,66.7743604 12.0695509,66.7945004 12.104139,66.8365315 C12.213595,66.5567619 12.3147324,66.2997591 12.4149941,66.0427564 C12.6776886,65.3663181 12.9408208,64.6898798 13.2026397,64.0134416 C13.4338108,63.4162495 13.6667332,62.8194952 13.8917748,62.220114 C13.9403733,62.0909559 14.0419485,62.0686269 14.1479019,62.0581191 C14.2761844,62.0454222 14.4154125,62.0467357 14.4771457,62.1912176 C14.5922934,62.4596038 14.6986847,62.7319304 14.8042003,63.0038192 C14.9661952,63.4210656 15.1238119,63.8396254 15.2844933,64.2573096 C15.5274857,64.8904033 15.7717916,65.5230591 16.0165352,66.1552772 C16.0909653,66.3487954 16.1675846,66.541438 16.2459551,66.733205 C16.2590898,66.765604 16.2866727,66.7923112 16.3273904,66.8496662 C16.3974422,66.5804044 16.4596133,66.3409146 16.5217843,66.1018626 C16.6281755,65.6955618 16.7358803,65.2892611 16.8400824,64.8825225 C16.9254581,64.5489005 17.0055799,64.213965 17.0909556,63.8803431 C17.1947199,63.4731666 17.301549,63.0668658 17.4075025,62.6601272 C17.431145,62.5690598 17.4644196,62.4797437 17.4793056,62.386925 C17.5029481,62.2406917 17.5997072,62.1846503 17.7279897,62.1824611 C18.041034,62.1763316 18.354516,62.1741425 18.6675603,62.1824611 C18.9066122,62.1885907 18.9762263,62.3033006 18.9035475,62.5598655 C18.7433038,63.1224695 18.5756172,63.6828844 18.4171249,64.2454884 C18.2722051,64.7586182 18.1382309,65.274375 17.9941868,65.7875049 C17.8729095,66.2187616 17.7420001,66.6473915 17.620285,67.0786482 C17.4963808,67.5190993 17.3807952,67.9617394 17.2573288,68.4017527 C17.134738,68.8378255 17.0060177,69.2717092 16.8812379,69.7069064 C16.8527793,69.8067303 16.833515,69.9091811 16.8019917,70.0076915 C16.7678414,70.1149584 16.6982274,70.1911398 16.5765123,70.1885129 C16.4447272,70.1854481 16.2945536,70.2292305 16.2245017,70.0536631 C16.022227,69.5457871 15.815574,69.0396624 15.6137371,68.5317864 C15.4311644,68.0725089 15.25297,67.6114802 15.0721486,67.151327 C14.8125189,66.4893369 14.5528892,65.8269091 14.2915082,65.1657947 C14.262174,65.0918024 14.2210186,65.023064 14.1855548,64.9521365 C14.1719823,64.9547634 14.1588475,64.9573904 14.145275,64.9600173 Z M5.04387487,64.8593616 C5.1896703,64.6535842 5.32364447,64.4661955 5.45542953,64.2770555 C5.9033236,63.6330162 6.35121767,62.9894148 6.79604697,62.3427485 C6.87616878,62.2262873 6.97730615,62.172435 7.11697205,62.1737484 C7.44928055,62.1763754 7.78158905,62.1671811 8.11345973,62.179878 C8.20058673,62.1833806 8.30872928,62.2293521 8.36477077,62.2932744 C8.44489258,62.3843418 8.3744029,62.4867927 8.31354535,62.5747953 C7.49218731,63.7595474 6.66995363,64.9434238 5.8542873,66.1312406 C5.79693234,66.214865 5.75884164,66.3300128 5.75840382,66.4307123 C5.75139863,67.5314021 5.7544634,68.6325298 5.75402558,69.7336574 C5.75402558,70.0151783 5.6962328,70.0712198 5.40989582,70.0712198 C5.13932052,70.0716576 4.86918304,70.0720955 4.59860774,70.0712198 C4.37006355,70.070782 4.30132517,70.0055462 4.29869822,69.7748129 C4.29519563,69.475779 4.29782257,69.1767451 4.29782257,68.8777113 C4.29782257,68.0423429 4.29957387,67.2074123 4.29519563,66.3720439 C4.29475781,66.3072459 4.26586141,66.2341293 4.22864636,66.1794013 C3.55001899,65.1780975 2.86788902,64.1789829 2.18707252,63.1789926 C2.0377745,62.9605184 1.88584953,62.7437954 1.74399452,62.5205051 C1.63716543,62.3523807 1.70327687,62.1930127 1.90073555,62.1842562 C2.28383165,62.1676189 2.66911687,62.1689324 3.05265079,62.1877588 C3.13583738,62.1916992 3.23390998,62.2862692 3.29038929,62.3642019 C3.57278584,62.7551789 3.84292332,63.1540366 4.11831469,63.5498296 C4.39326823,63.9456226 4.66909742,64.3414156 4.94536444,64.736333 C4.96900694,64.7704833 4.99746551,64.8020066 5.04387487,64.8593616 Z M27.7365614,66.1757235 C27.7365614,64.9480647 27.7361236,63.7199681 27.7365614,62.4923093 C27.7365614,62.2304904 27.8061754,62.1613142 28.0719347,62.1613142 C29.0973187,62.1608764 30.1231406,62.1560603 31.1485247,62.1626277 C32.1502663,62.1687572 32.9313445,62.5833767 33.4252101,63.4677814 C33.9851872,64.4708364 33.7487621,65.6958683 32.8612927,66.4178403 C32.6441319,66.5942834 32.3945721,66.7330736 32.1511419,66.8731774 C32.0600745,66.9252784 32.043875,66.9668717 32.0898466,67.0518096 C32.57408,67.9484734 33.0574379,68.845575 33.5412335,69.7422388 C33.5591843,69.7759512 33.5771351,69.8101015 33.5933346,69.8446896 C33.6721429,70.0141275 33.5810755,70.1708686 33.3928111,70.1730577 C33.0027098,70.1778738 32.6126086,70.174809 32.2225073,70.1743712 C32.116116,70.1743712 32.0495667,70.1253349 31.9996548,70.0259488 C31.5259291,69.0771839 31.045636,68.1314839 30.5723482,67.1818434 C30.5224362,67.0820195 30.4672704,67.0391127 30.3543118,67.0413018 C30.0316354,67.0478692 29.708959,67.0478692 29.3862827,67.0413018 C29.2671945,67.0391127 29.2291038,67.0776412 29.2295416,67.197605 C29.2339199,68.0693128 29.2317307,68.9405828 29.2317307,69.8122906 C29.2317307,70.1069463 29.1629924,70.174809 28.8661476,70.174809 C28.6017018,70.1752468 28.3368183,70.1752468 28.0719347,70.174809 C27.8101158,70.174809 27.7365614,70.102568 27.7365614,69.8446896 C27.7361236,68.6218469 27.7365614,67.3990041 27.7365614,66.1757235 Z M29.2396116,64.6569117 C29.2396116,64.9839663 29.2453033,65.3114587 29.2369846,65.6380755 C29.2330442,65.7751145 29.2724484,65.8219617 29.4143034,65.8202104 C29.9528271,65.8127673 30.4917885,65.813643 31.03075,65.8184591 C31.6437038,65.8232751 32.1493906,65.3872023 32.228199,64.7764377 C32.3109477,64.1367766 31.7719863,63.5426493 31.088105,63.5330172 C30.5158689,63.5251364 29.9431949,63.533455 29.3709588,63.5290768 C29.2698214,63.5286389 29.2365468,63.5610379 29.2378603,63.6608618 C29.2426763,63.9931703 29.2396116,64.325041 29.2396116,64.6569117 Z M22.9159428,68.7120386 C22.4006238,68.7120386 21.8857426,68.7146656 21.3704236,68.7098495 C21.2544003,68.708536 21.1887266,68.7422485 21.1396903,68.8543315 C20.9776954,69.226482 20.8016901,69.5925029 20.6340035,69.9620265 C20.5683299,70.1069463 20.45362,70.1713064 20.3034463,70.1734955 C19.985586,70.1769981 19.6677257,70.1783116 19.3503032,70.1734955 C19.1410233,70.1699929 19.0547719,70.0281379 19.1423367,69.8389979 C19.7268319,68.5771888 20.3135162,67.3166932 20.896698,66.0544463 C21.4457294,64.8661916 21.9903826,63.6761857 22.5372249,62.4866176 C22.5775047,62.3999284 22.6164711,62.3128014 22.6585022,62.2269879 C22.7149815,62.1118401 22.7981681,62.0339074 22.9360827,62.0347831 C23.072246,62.0356587 23.1606864,62.1065862 23.2149766,62.2256744 C23.3931711,62.6170891 23.570052,63.0089417 23.7486842,63.3999187 C24.1046352,64.1774943 24.4623375,64.9546321 24.8174129,65.7322077 C25.2920142,66.7707265 25.7648643,67.810121 26.2390278,68.8490776 C26.3800072,69.1577436 26.5214243,69.4659718 26.6672198,69.7724486 C26.7959401,70.0430239 26.7184452,70.1739333 26.4211626,70.174809 C26.1326365,70.1756846 25.8436726,70.1704308 25.5547087,70.1765603 C25.3756386,70.1805007 25.2644313,70.0924981 25.1939416,69.9418866 C25.0245037,69.5780547 24.8524388,69.2155364 24.6948221,68.8464506 C24.6470993,68.7352433 24.5827392,68.7098495 24.4754723,68.7107252 C23.955775,68.7137899 23.43564,68.7120386 22.9159428,68.7120386 Z M22.9299531,64.9331787 C22.9159428,64.9309896 22.9014946,64.9283626 22.8874842,64.9261735 C22.5183985,65.7545367 22.1493127,66.5833378 21.7749731,67.4230844 C21.827512,67.4349057 21.8498411,67.4445378 21.8721701,67.4445378 C22.5604296,67.4458513 23.2486891,67.4454135 23.9369486,67.4462891 C24.0525342,67.4462891 24.0507829,67.389372 24.0122544,67.3066232 C23.9216248,67.1113537 23.8336221,66.9156463 23.744306,66.7199389 C23.472855,66.1240603 23.2014041,65.5286195 22.9299531,64.9331787 Z M36.4491299,66.7821537 C36.4491299,65.7466997 36.4473786,64.7112457 36.4521947,63.6757916 C36.4526325,63.5588926 36.4180444,63.5282449 36.3055236,63.5291205 C35.7902046,63.5339366 35.2748856,63.5317475 34.7595667,63.5308718 C34.5516002,63.530434 34.4859266,63.4735169 34.4819862,63.2703665 C34.4758566,62.9910347 34.4762945,62.7117029 34.4815484,62.4323711 C34.4854888,62.2406042 34.552038,62.1779953 34.7442428,62.1622337 C34.7775175,62.1596067 34.8112299,62.1609202 34.8449424,62.1609202 L39.5265956,62.1609202 C39.8571528,62.161358 39.9136321,62.2178373 39.9136321,62.5466432 C39.9136321,62.7681822 39.9149456,62.9897212 39.9136321,63.2112602 C39.9123187,63.4599443 39.8431425,63.530434 39.6001501,63.5308718 C39.1089114,63.5317475 38.6176728,63.5370014 38.1264341,63.5278071 C37.9780117,63.5251801 37.9403589,63.5711517 37.9407967,63.7156336 C37.9447371,65.738381 37.9438614,67.7611284 37.9429858,69.7838758 C37.9429858,69.8508629 37.9412345,69.9191635 37.9298511,69.9848371 C37.9092733,70.1061144 37.8287137,70.171788 37.7091877,70.1731015 C37.3672471,70.1766041 37.0253065,70.1774797 36.6833658,70.1731015 C36.5450134,70.1713502 36.4591999,70.0855367 36.453946,69.9463086 C36.446503,69.7440338 36.4491299,69.5417591 36.4491299,69.3394844 C36.4486921,68.4870408 36.4491299,67.6345973 36.4491299,66.7821537 Z M63.9982053,63.4992609 C64.4167652,63.021157 64.900123,62.6967293 65.4719213,62.523351 C66.4473934,62.2278197 67.399223,62.2492731 68.2608609,62.8600377 C68.4915942,63.023784 68.6632212,63.2707168 68.8576151,63.4834993 C68.9079649,63.5386651 68.9416774,63.6091548 68.9915893,63.6862118 C69.1360713,63.5496107 69.2678563,63.4147609 69.4097114,63.2912945 C70.1789683,62.6222992 71.0730052,62.279483 72.0918219,62.3552265 C73.2700066,62.4432292 74.14259,62.9935741 74.5191188,64.3188677 C74.6474012,64.7702643 74.6929349,65.2326066 74.6955619,65.6980136 C74.7016914,67.001416 74.6981888,68.3052562 74.697751,69.6086586 C74.697751,69.913822 74.6246344,69.9851874 74.3203466,69.986063 C73.8921546,69.9873765 73.8772686,69.9720526 73.8772686,69.542985 C73.8768308,68.2724194 73.8785821,67.0018539 73.8755173,65.7312883 C73.8746417,65.2080885 73.8129085,64.6949586 73.5834886,64.2146655 C73.2936491,63.6082791 72.80854,63.2641494 72.1474255,63.1814006 C71.0090828,63.0382322 70.0984087,63.4721158 69.3641776,64.320619 C69.3195196,64.3722822 69.2963149,64.4742952 69.3116388,64.5412823 C69.4197813,65.0088785 69.4482399,65.4812907 69.4469264,65.958519 C69.4425482,67.1800483 69.4456129,68.4011397 69.4451751,69.622669 C69.4451751,69.9055034 69.3668046,69.9843117 69.0883485,69.986063 C68.6575295,69.98869 68.6233792,69.953664 68.6225036,69.5224073 C68.6194388,68.136694 68.6251305,66.7509806 68.6071798,65.3657051 C68.6006124,64.8692126 68.4705786,64.3915465 68.1886199,63.9712353 C67.772687,63.3517142 67.1531659,63.1371804 66.4452043,63.1494395 C65.8611469,63.1599473 65.3086129,63.3158126 64.8335737,63.6695745 C64.6111591,63.8346342 64.4132626,64.0338442 64.2079231,64.2216707 C64.0748245,64.342948 64.0384851,64.4957486 64.0393608,64.6778835 C64.0454903,66.3044 64.0433012,67.9313545 64.0424255,69.557871 C64.0424255,69.6340524 64.0380473,69.7106717 64.0323556,69.7872909 C64.0240369,69.9120707 63.9474177,69.9694257 63.8300808,69.9829983 C63.824827,69.9834361 63.8191352,69.9843117 63.8138814,69.9843117 C63.2692282,69.9913169 63.2258836,70.0320346 63.2276349,69.4532311 C63.2333266,67.2789965 63.229824,65.104762 63.229824,62.9305274 C63.229824,62.5745764 63.404078,62.4392888 63.745143,62.5496204 C63.8086275,62.5701982 63.8686094,62.6673951 63.8896249,62.7409496 C63.9237752,62.8604756 63.9220239,62.9896337 63.939099,63.1139757 C63.9548607,63.2317504 63.9750006,63.3486494 63.9982053,63.4992609 Z M53.4628436,66.2586036 C53.4654706,64.7332244 54.2798234,63.3190525 55.7220161,62.6601272 C56.2986304,62.396995 56.9164003,62.2792203 57.5459913,62.3589043 C58.9176943,62.5318448 59.9146198,63.258195 60.5367679,64.490232 C60.8760815,65.1618542 60.9938562,65.8825127 60.9229287,66.6255002 C60.775382,68.1714572 59.816985,69.5422845 58.2399426,70.0168858 C56.5972265,70.5107514 54.900658,69.8089194 54.0285124,68.3378304 C53.6489189,67.6968559 53.4689732,67.0015912 53.4628436,66.2586036 Z M57.3248902,69.4061212 C58.0564943,69.3912352 58.7832823,69.0703101 59.3388811,68.4091957 C60.0595396,67.5510604 60.2731977,66.5558862 60.0315188,65.4718337 C59.7688244,64.2958381 58.8327564,63.3383168 57.641437,63.1706302 C56.5118508,63.0117 55.5897932,63.3952339 54.9063498,64.2958381 C54.2141498,65.2087014 54.109072,66.2384637 54.4286836,67.3185758 C54.7925155,68.5466725 55.9256043,69.3951756 57.3248902,69.4061212 Z M48.7214712,62.3374509 C49.7459796,62.3689742 50.6032392,62.6391117 51.3238977,63.2783349 C51.3361568,63.2888427 51.3488537,63.2997883 51.3606749,63.3111717 C51.6886052,63.614146 51.6907943,63.6929543 51.3773123,63.9906747 C51.2030583,64.1566101 51.1054235,64.1631774 50.9289804,63.992426 C50.6697885,63.741115 50.3729437,63.5515371 50.0437,63.4096821 C48.4128052,62.7078501 46.5082703,63.4652858 45.9088891,65.1767403 C45.4618707,66.4534354 45.8257025,67.8220736 46.8519622,68.6889653 C47.4846181,69.2235485 48.2302325,69.4472767 49.0634118,69.3702196 C49.8598139,69.2962273 50.5104205,68.9446546 51.0450038,68.361035 C51.0822188,68.3207552 51.1203095,68.281351 51.161465,68.2454495 C51.2507811,68.167079 51.340535,68.1561334 51.4386076,68.2380065 C51.8497245,68.5816984 51.8549784,68.6202269 51.509973,68.9954422 C51.0506955,69.4945617 50.4815241,69.8343132 49.8366092,70.0173237 C47.8677142,70.5764251 45.7902387,69.5330902 45.1278109,67.5957185 C44.6037354,66.0633341 44.905834,64.6653617 46.0380472,63.4893661 C46.6269206,62.8777258 47.3650921,62.5187101 48.2109683,62.396995 C48.4053622,62.369412 48.6006317,62.3514612 48.7214712,62.3374509 Z M41.2221571,69.4309896 C41.2204058,69.0163702 41.5470226,68.6928182 41.9743389,68.6866886 C42.3968392,68.6805591 42.7129482,68.9879116 42.7199534,69.4117253 C42.7269585,69.8346634 42.4007796,70.1726637 41.9852845,70.1726637 C41.5737298,70.1731015 41.2239084,69.8329121 41.2221571,69.4309896 Z M24.3281444,31.7664259 L18.8391435,31.7664259 L18.8391435,29.0221443 L16.0944242,29.0221443 L16.0944242,31.7664259 L9.23328247,31.7664259 L9.23328247,29.0221443 L6.48900092,29.0221443 L6.48900092,31.7664259 L1,31.7664259 L1,34.5107074 L6.48900092,34.5107074 L6.48900092,38.6284432 L9.23328247,38.6284432 L9.23328247,34.5107074 L16.0944242,34.5107074 L16.0944242,38.6284432 L18.8391435,38.6284432 L18.8391435,34.5107074 L24.3281444,34.5107074 L24.3281444,31.7664259 Z M24.3344929,50.9796366 L24.3344929,49.6088093 L21.5902114,49.6088093 L21.5902114,50.9796366 L21.5897735,50.9796366 C21.5897735,51.5002095 21.2916153,52.0006425 20.7850528,52.2274353 C20.5109749,52.3500261 20.2193841,52.3509017 20.2193841,52.3509017 L10.3687793,52.3509017 C10.3692171,52.3495883 10.369655,52.3487126 10.3700928,52.3473992 L6.49009548,52.3473992 C5.96908478,52.3469613 5.47127877,52.0483653 5.24229675,51.5426784 C4.93012816,50.8539811 5.23529157,50.0418174 5.92442672,49.7296488 L9.56405858,48.2397333 C9.56318294,48.2384198 9.56186946,48.2375442 9.56099382,48.2366685 L22.9457148,42.744165 L22.9680438,42.744165 L22.9680438,39.9998835 L2.38024052,39.9998835 L2.38024052,42.744165 L15.7159252,42.744165 L4.86138977,47.1981497 L4.86226542,47.2003389 C4.83862292,47.2108466 4.81454259,47.2187275 4.79090009,47.2292353 C2.72086768,48.1679302 1.80362616,50.6066105 2.74232106,52.6766429 C3.43014275,54.1941413 4.9253121,55.0881781 6.49009548,55.0894916 L6.49009548,55.0951833 L20.2193841,55.0951833 L20.2193841,55.0956211 C20.7885554,55.0960589 21.3669211,54.9778464 21.9190173,54.727411 C23.4365156,54.0391515 24.3344929,52.54442 24.3358064,50.9796366 L24.3344929,50.9796366 Z M47.6563327,29.0219254 L27.0724698,29.0219254 L27.0724698,31.7666448 L47.6563327,31.7666448 L47.6563327,39.9999273 L43.5394725,39.9999273 L43.5394725,34.5253745 L40.795191,34.5253745 L40.795191,39.9999273 L36.6783308,39.9999273 L36.6783308,34.5253745 L33.9340493,34.5253745 L33.9340493,39.9999273 L29.8171892,39.9999273 L29.8171892,34.5253745 L27.0724698,34.5253745 L27.0724698,55.0947893 L29.8171892,55.0947893 L29.8171892,42.7442088 L33.9340493,42.7442088 L33.9340493,49.61148 L36.6783308,49.61148 L36.6783308,42.7442088 L40.795191,42.7442088 L40.795191,49.61148 L43.5394725,49.61148 L43.5394725,42.7442088 L47.6563327,42.7442088 L47.6563327,50.9595405 C47.6585218,51.709971 47.048195,52.3202978 46.2973266,52.3220491 L44.9295641,52.3229248 L44.9295641,55.0851571 L46.3017049,55.0851571 C48.574012,55.0790276 50.4067438,53.2318476 50.4006142,50.9591027 L50.4006142,31.7666448 L50.4006142,29.0219254 L47.6563327,29.0219254 Z M47.6488897,18.9835379 L53.5236136,8.25509583 L55.3861174,18.2703224 L47.6488897,18.9835379 Z M54.3324061,8.21262689 L58.7334141,28.2487718 L69.1820866,16.4660493 L54.3324061,8.21262689 Z M83.3821237,3.15650267 L90.4350323,28.5704412 L105.962027,7.35742505 L83.3821237,3.15650267 Z M59.2443111,29.0152705 L89.563631,28.6553791 L82.5102845,3.24144055 L59.2443111,29.0152705 Z M59.3720682,29.9519952 L86.789052,51.7810299 L89.6913881,29.5921038 L59.3720682,29.9519952 Z M83.6280057,2.37783249 L113.919305,8.01350448 L110.27836,1 L83.6280057,2.37783249 Z M100.317379,67.5986519 L90.6235156,29.7198608 L87.0040236,59.7926858 L100.317379,67.5986519 Z" id="Combined-Shape"></path>
        </g>
    </g>
</svg>